<svg clip-rule="evenodd" fill-rule="evenodd" stroke-linejoin="round" stroke-miterlimit="2" width="600" height="180" viewBox="0 0 600 180" xmlns="http://www.w3.org/2000/svg"><g fill="#fff"><g fill-rule="nonzero"><path d="m138.7 19.7h8.6c6.7 0 9.9 3.1 8.3 9-1.7 6.3-7 9.5-13.7 9.5h-2.5l-3 10.8h-5.6zm7.1 4.5h-2.7l-2.5 9.5h2.5c3.6 0 6.1-1.5 7-4.8.7-3.1-.7-4.7-4.3-4.7z"/><path d="m161 49.4c-5.5 0-8.5-4-6.7-10.6s6.9-10.7 12.5-10.7 8.6 4 6.8 10.6c-1.8 6.7-7 10.7-12.6 10.7zm4.6-17.2c-3 0-5.3 2.7-6.4 6.5-1 3.8-.1 6.5 2.9 6.5 3.1 0 5.5-2.7 6.5-6.5 1-3.7.1-6.5-3-6.5z"/><path d="m195.3 49h-4.7l-.1-13.5-7.3 13.5h-4.7l-.7-20.1 5.4-.7-.1 13.9 7.3-13.6h4.5l.1 13.5 7.1-13.5h4.9z"/><path d="m212.9 49.4c-5.7 0-9.1-3.3-7.1-10.6 1.8-6.7 6.8-10.7 12.2-10.7 6.1 0 7.7 4.6 6.1 10.4-.1.4-.3.9-.4 1.2h-13.1c-.9 4 .8 5.7 4 5.7 2.6 0 5-1 7.7-2.5l-.5 4c-2.7 1.5-5.6 2.5-8.9 2.5zm-1.5-12.9h8.2c.5-3.2-.3-5-2.7-5-2.1.1-4.2 1.7-5.5 5z"/><path d="m233.4 37.2-3.2 11.8h-5.1l5.5-20.5h4.3l-.5 4.1c2-2.4 4.6-4.4 7.8-4.5l-.5 5c-3.2.2-6.3 1.9-8.3 4.1z"/><path d="m248.8 49.4c-5.7 0-9.1-3.3-7.2-10.6 1.8-6.7 6.8-10.7 12.2-10.7 6.1 0 7.7 4.6 6.1 10.4-.1.4-.3.9-.4 1.2h-13.1c-.9 4 .8 5.7 4 5.7 2.6 0 5-1 7.7-2.5l-.5 4c-2.6 1.5-5.5 2.5-8.8 2.5zm-1.5-12.9h8.2c.5-3.2-.3-5-2.7-5-2.1.1-4.3 1.7-5.5 5z"/><path d="m274.4 28.3c1.9 0 3.4.3 4.5.8l2.6-9.9 5.3-.8-8.1 30.6h-4.4l.3-2.8c-1.9 1.7-4.3 3.3-7.1 3.3-4.3 0-6.9-3.2-5-10.1 2.1-7.7 7.2-11.1 11.9-11.1zm-4.3 16.6c1.9 0 3.6-1.1 5.4-2.8l2.4-8.8c-1.1-.6-2-.9-3.7-.9-2.7 0-5.2 2.2-6.4 6.7-1.1 3.9 0 5.8 2.3 5.8z"/><path d="m300.9 49.2c-3.2 0-5.7-.5-8-1.4l7.7-28.7 5.3-.8-3.3 12.4c1.7-1.4 3.9-2.7 6.5-2.7 4.3 0 6.8 3.2 5 10.1-2.1 7.6-7.1 11.1-13.2 11.1zm5.6-16.6c-1.7 0-3.5 1.1-5.2 2.7l-2.5 9.3c1 .4 1.6.5 3.1.5 3.2 0 5.7-1.9 6.9-6.6 1.1-4 0-5.9-2.3-5.9z"/><path d="m312.8 56.5.5-4.3c.6.2 1.3.3 2.2.3 1.7 0 3.3-.8 4.5-3l.3-.6-2-20.1 5.5-.7.7 14.7 8.4-14.4h5.1l-13.7 21.8c-3.1 4.9-5.8 6.4-9.5 6.4-1.1.1-1.6 0-2-.1z"/><path d="m170.8 82.6c.2-7.1-1.1-12.9-4-17.3-1.9-3-4.5-5.1-7.6-6.3-3.4-1.2-7.8-1.8-13.1-1.8h-17.4c-.3 0-.5.2-.5.4l-28.1 104.9c0 .2 0 .3.1.5.1.1.3.2.4.2h11.4c13.3 0 23.3-2.3 29.7-7 5.2-3.7 9.7-9.1 13.4-16.2 3.8-7.3 7.3-16.8 10.4-28.4 3.4-12.5 5.2-22.3 5.3-29zm-52 67.2 21.3-79.6h1.3c7.4 0 11.5 2.8 12.7 8.7 1.2 6-.4 17.1-4.7 33.1-4 14.9-8.2 25-12.5 30.2-3.9 4.9-10.1 7.4-18.1 7.6z"/><path d="m213.4 127.2c1.7-6.4 2.8-12 3.1-16.6.4-4.7 0-8.6-1-11.7-1-3.2-2.8-5.5-5.3-7s-5.7-2.3-9.6-2.3c-14.9 0-25.8 12.4-32.3 36.8-4.1 15.3-3.9 26 .5 31.7 2.6 3.4 6.8 5.2 12.4 5.2 14.9-.1 25.8-12.2 32.2-36.1zm-28.7 22.8c-2.8 0-4.3-1.6-4.6-4.9-.3-3.5.8-9.8 3.2-18.7s4.7-15.3 6.8-18.8c2.2-3.4 4.7-5.2 7.6-5.2 2.8 0 4.3 1.6 4.5 5 .2 3.5-.9 10-3.3 19.1-2.4 8.9-4.7 15.1-6.8 18.4-2 3.4-4.5 5.1-7.4 5.1z"/><path d="m296 94.8c-2-2.7-5.6-4.1-10.7-4.1-6.2 0-11.8 3-16.9 9-.9-6-4.6-9-10.9-9-5.5 0-10.8 2.8-15.7 8.2l1.7-6.4c0-.2 0-.3-.1-.5-.1-.1-.3-.2-.4-.2h-13c-.3 0-.5.2-.5.4l-18.8 70.3c0 .2 0 .3.1.5.1.1.3.2.4.2h13c.3 0 .5-.2.5-.4l12.4-46.3c1.3-4.8 2.8-8.2 4.6-10.2 1.7-1.9 3.9-2.9 6.8-2.9 1.3 0 2.3.2 3.1.6.7.4 1.2 1 1.4 2 .3 1 .3 2.3.1 3.9-.2 1.7-.6 3.8-1.3 6.2l-12.4 46.3c0 .2 0 .3.1.5.1.1.3.2.4.2h13.5c.3 0 .5-.2.5-.4l12.4-46.3c1.4-5.1 2.8-8.6 4.4-10.4 1.5-1.8 3.8-2.7 6.7-2.7 2.5 0 3.9.8 4.3 2.4.5 1.7 0 5.2-1.4 10.4l-12.4 46.3c0 .2 0 .3.1.5.1.1.3.2.4.2h13c.3 0 .5-.2.5-.4l15-56.1c1.4-5.1 1.1-9.1-.9-11.8z"/><path d="m351.5 90.9c-.1-.1-.3-.2-.4-.2h-13c-.3 0-.5.2-.5.4l-1.6 6.1c-1.9-5.1-5.4-7.7-10.4-7.7-6 0-11.3 3-15.6 8.8s-8.1 14.9-11.4 27.1c-3.4 12.8-4.6 22.4-3.5 28.4 1.2 6.3 4.9 9.4 11 9.4 3.1 0 5.9-.8 8.2-2.3 1.8-1.2 3.9-3.2 6.2-5.9l-1.7 6.4c0 .2 0 .3.1.5.1.1.3.2.4.2h13c.3 0 .5-.2.5-.4l18.8-70.3c.1-.2 0-.3-.1-.5zm-22.9 35.4c-2.2 8.4-4.6 14.7-7 18.7-2.2 3.6-4.7 5.4-7.4 5.4-2.9 0-4.4-1.6-4.6-5-.2-3.6.9-10.1 3.3-19.2s4.8-15.4 6.9-18.7c2.2-3.4 4.7-5.2 7.6-5.2 2.6 0 4 1.7 4.2 5.2.3 4.1-.8 10.4-3 18.8z"/><path d="m372.1 92c-.1-.1-.3-.2-.4-.2h-13c-.3 0-.5.2-.5.4l-18.8 70.3c0 .2 0 .3.1.5.1.1.3.2.4.2h13c.3 0 .5-.2.5-.4l18.8-70.3c.1-.2 0-.4-.1-.5z"/><path d="m367.9 80.6c2.6 0 5-.9 7.3-2.7s3.8-4 4.5-6.5c.7-2.6.3-4.8-1-6.7-1.4-1.9-3.3-2.8-5.9-2.8-2.5 0-4.9.9-7.4 2.7-2.3 1.8-3.8 3.9-4.4 6.4-.7 2.7-.4 5 .9 6.8 1.4 1.9 3.4 2.8 6 2.8z"/><path d="m438.1 57.4c-.1-.1-.3-.2-.4-.2h-14.2c-.3 0-.5.2-.5.4l-10.5 39.1c-1.6 5.8-3 12-4.2 18.6-.7 3.9-1.4 8-2.1 12.5.1-9.9-.2-19.3-.9-28.2l-2.9-41.9c0-.3-.3-.5-.6-.5h-13.2c-.3 0-.5.2-.5.4l-28.1 104.9c0 .2 0 .3.1.5.1.1.3.2.4.2h13.9c.3 0 .5-.2.5-.4l11.5-45.7c.4-1.3.7-2.5.9-3.5.3-1 .5-1.9.6-2.7l2.7-13 1.4-7c-.1 3.8-.2 7.5-.2 11.1.1 4.6.2 9.2.5 13.6l3.2 47.2c0 .3.3.5.6.5h13.3c.3 0 .5-.2.5-.4l28.1-104.9c.3-.3.3-.5.1-.6z"/><path d="m466.4 137.6c-.1-.1-.3-.2-.4-.2h-12.1c-.3 0-.5.2-.5.4-2.4 8.8-6.2 13.3-11.3 13.3-1.5 0-2.6-.5-3.4-1.5-2.2-2.8-1.9-9.5.9-19.9h29.3c.3 0 .5-.2.5-.4l.4-1.6c4.3-16.1 4.3-27.3-.2-33.1-2.5-3.2-6.4-4.9-11.5-4.9-7.4 0-13.7 3.1-18.9 9.2-5.1 6-9.4 15.4-12.7 27.8-1.7 6.3-2.7 11.7-3.1 16.3s-.1 8.4.9 11.4c1 3.1 2.8 5.4 5.2 6.8 2.4 1.5 5.6 2.2 9.4 2.2 12.9 0 22.1-8.5 27.6-25.2 0-.3 0-.5-.1-.6zm-11.6-35.9c2.4 0 3.7 1.1 4.1 3.4.5 2.2 0 6.8-1.3 13.9h-15.2c2.4-6.9 4.4-11.5 6.1-13.7 1.7-2.4 3.8-3.6 6.3-3.6z"/><path d="m505.4 130.9c-.5-1.5-1.4-3.1-2.6-4.8s-2.8-3.5-4.8-5.4c-4.7-4.4-6.6-8.3-5.7-11.4.3-1 .7-2 1.4-2.9s1.4-1.7 2.3-2.4 1.9-1.2 2.9-1.6 2.1-.6 3.2-.6c3.3 0 6.2 1.1 8.7 3.4.1.1.3.2.5.1s.3-.2.4-.4l3.3-12.2c.1-.2 0-.5-.2-.6-3.3-2.1-7-3.1-11.1-3.1-5.8 0-11 1.8-15.6 5.5-4.5 3.7-7.6 8.5-9.2 14.2-1.2 4.3-1.2 8.1 0 11.2 1.2 3 4 6.6 8.4 10.9 1.2 1.3 2.3 2.4 3.1 3.4s1.3 1.8 1.6 2.6c.6 1.5.6 3.2.1 5.3-1.5 5.6-5 8.4-10.7 8.4-3.2 0-6.3-1.4-9.2-4.1-.1-.1-.3-.2-.5-.1s-.3.2-.4.4l-3.4 12.6c-.1.2 0 .5.2.6 3.3 2.3 7 3.4 10.8 3.4 6.2 0 11.8-1.9 16.5-5.8 4.8-3.9 8-9.1 9.8-15.4 1.1-4.5 1.2-8.3.2-11.2z"/><path d="m535 80.6c2.6 0 5-.9 7.3-2.7s3.8-4 4.5-6.5c.7-2.6.3-4.8-1-6.7-1.4-1.9-3.3-2.8-5.9-2.8-2.5 0-4.9.9-7.4 2.7-2.3 1.8-3.8 3.9-4.4 6.4-.7 2.7-.4 5 .9 6.8 1.3 1.9 3.4 2.8 6 2.8z"/><path d="m539.2 92c-.1-.1-.3-.2-.4-.2h-13c-.3 0-.5.2-.5.4l-18.8 70.3c0 .2 0 .3.1.5.1.1.3.2.4.2h13c.3 0 .5-.2.5-.4l18.8-70.3c0-.2 0-.4-.1-.5z"/><path d="m590.1 90.9c-.1-.1-.3-.2-.4-.2h-13c-.3 0-.5.2-.5.4l-1.6 6.1c-1.9-5.1-5.4-7.7-10.4-7.7-6 0-11.3 3-15.6 8.8s-8.1 14.9-11.4 27.1c-3.4 12.8-4.6 22.4-3.5 28.4 1.2 6.3 4.9 9.4 11 9.4 3.1 0 5.9-.8 8.2-2.3 1.8-1.2 3.9-3.2 6.2-5.9l-1.7 6.4c0 .2 0 .3.1.5.1.1.3.2.4.2h13c.3 0 .5-.2.5-.4l18.8-70.3c.1-.2 0-.3-.1-.5zm-23 35.4c-2.2 8.4-4.6 14.7-7 18.7-2.2 3.6-4.7 5.4-7.4 5.4-2.9 0-4.4-1.6-4.6-5-.2-3.6.9-10.1 3.3-19.2s4.8-15.4 6.9-18.7c2.2-3.4 4.7-5.2 7.6-5.2 2.6 0 4 1.7 4.2 5.2.3 4.1-.7 10.4-3 18.8z"/></g><path d="m79.6 75.5-66.6 31.7 66.6 50.8z"/><path d="m125.8 16.8-39.3 18.7v127.7z"/></g></svg>