<svg clip-rule="evenodd" fill-rule="evenodd" stroke-linejoin="round" stroke-miterlimit="2" width="600" height="180" viewBox="0 0 600 180" xmlns="http://www.w3.org/2000/svg"><g fill="#fff"><g fill-rule="nonzero"><path d="m165.8 74.8c.2-7.1-1.1-12.9-4-17.4-1.9-3-4.5-5.1-7.7-6.3-3.4-1.2-7.8-1.8-13.1-1.8h-17.5c-.3 0-.5.2-.5.4l-28.2 105.3c0 .2 0 .3.1.5.1.1.3.2.4.2h11.5c13.3 0 23.4-2.4 29.8-7 5.2-3.7 9.7-9.2 13.5-16.2 3.8-7.3 7.3-16.9 10.4-28.5 3.4-12.6 5.1-22.4 5.3-29.2zm-52.2 67.4 21.4-79.9h1.3c7.4 0 11.6 2.8 12.8 8.7 1.2 6-.4 17.2-4.7 33.2-4 14.9-8.2 25.1-12.6 30.3-4 5-10.2 7.5-18.2 7.7z"/><path d="m208.5 119.5c1.7-6.4 2.8-12 3.1-16.7.4-4.7 0-8.6-1-11.7-1-3.2-2.8-5.5-5.4-7.1-2.5-1.5-5.7-2.3-9.6-2.3-14.9 0-25.9 12.4-32.4 36.9-4.1 15.4-4 26.1.5 31.8 2.7 3.5 6.9 5.2 12.5 5.2 15 .1 25.8-12.1 32.3-36.1zm-28.8 23c-2.8 0-4.3-1.6-4.6-4.9-.3-3.5.8-9.8 3.2-18.8s4.7-15.3 6.9-18.9c2.2-3.4 4.7-5.2 7.6-5.2s4.3 1.6 4.5 5c.2 3.6-.9 10-3.3 19.2-2.4 8.9-4.7 15.2-6.8 18.5s-4.6 5.1-7.5 5.1z"/><path d="m291.4 87c-2-2.8-5.6-4.1-10.8-4.1-6.2 0-11.9 3.1-17 9.1-.9-6-4.6-9.1-11-9.1-5.5 0-10.8 2.8-15.8 8.2l1.7-6.4c0-.2 0-.3-.1-.5-.1-.1-.3-.2-.4-.2h-13c-.3 0-.5.2-.5.4l-19 70.6c0 .2 0 .3.1.5.1.1.3.2.4.2h13c.3 0 .5-.2.5-.4l12.4-46.4c1.3-4.8 2.8-8.2 4.6-10.2 1.7-1.9 4-2.9 6.8-2.9 1.3 0 2.3.2 3.1.6.7.4 1.2 1 1.5 2s.3 2.3.1 3.9c-.2 1.7-.6 3.8-1.3 6.3l-12.3 46.4c0 .2 0 .3.1.5.1.1.3.2.4.2h13.5c.3 0 .5-.2.5-.4l12.4-46.4c1.4-5.1 2.8-8.6 4.4-10.4 1.5-1.8 3.8-2.7 6.8-2.7 2.5 0 3.9.8 4.3 2.4.5 1.7 0 5.2-1.4 10.4l-12.4 46.4c0 .2 0 .3.1.5.1.1.3.2.4.2h13.1c.3 0 .5-.2.5-.4l15.2-56.3c1.4-5.2 1.1-9.3-.9-12z"/><path d="m347.1 83.1c-.1-.1-.3-.2-.4-.2h-13c-.3 0-.5.2-.5.4l-1.6 6.1c-1.9-5.1-5.4-7.7-10.5-7.7-6 0-11.3 3-15.6 8.9-4.3 5.8-8.1 14.9-11.4 27.2-3.4 12.8-4.6 22.4-3.5 28.5 1.2 6.3 4.9 9.5 11 9.5 3.1 0 5.9-.8 8.3-2.3 1.8-1.2 3.9-3.2 6.2-6l-1.7 6.4c0 .2 0 .3.1.5.1.1.3.2.4.2h13c.3 0 .5-.2.5-.4l18.9-70.6c-.1-.1-.1-.3-.2-.5zm-23.1 35.6c-2.3 8.4-4.6 14.7-7 18.7-2.2 3.6-4.7 5.5-7.4 5.5-2.9 0-4.4-1.6-4.6-5-.2-3.6.9-10.1 3.3-19.3 2.4-9.1 4.8-15.4 6.9-18.7 2.2-3.4 4.7-5.2 7.6-5.2 2.6 0 4 1.7 4.3 5.2.2 4-.8 10.3-3.1 18.8z"/><path d="m367.8 84.2c-.1-.1-.3-.2-.4-.2h-13.1c-.3 0-.5.2-.5.4l-19 70.6c0 .2 0 .3.1.5.1.1.3.2.4.2h13.1c.3 0 .5-.2.5-.4l18.9-70.6c.1-.2.1-.3 0-.5z"/><path d="m363.5 72.8c2.6 0 5-.9 7.3-2.7s3.8-4 4.5-6.6.3-4.8-1-6.7c-1.4-1.9-3.4-2.8-5.9-2.8s-5 .9-7.4 2.7c-2.3 1.8-3.8 4-4.4 6.4-.7 2.7-.4 5 .9 6.8 1.4 1.9 3.4 2.9 6 2.9z"/><path d="m434 49.5c-.1-.1-.3-.2-.4-.2h-14.3c-.3 0-.5.2-.5.4l-10.6 39.3c-1.6 5.8-3 12.1-4.2 18.7-.7 3.9-1.4 8.1-2.1 12.5.1-9.9-.2-19.4-.9-28.3l-2.9-42c0-.3-.3-.5-.6-.5h-13.2c-.3 0-.5.2-.5.4l-28.1 105.2c0 .2 0 .3.1.5.1.1.3.2.4.2h14c.3 0 .5-.2.5-.4l11.5-45.9c.4-1.3.7-2.5.9-3.6.3-1.1.5-1.9.6-2.7l2.7-13 1.4-7c-.2 3.8-.2 7.5-.2 11.1.1 4.6.2 9.2.5 13.6l3.2 47.4c0 .3.3.5.6.5h13.3c.3 0 .5-.2.5-.4l28.4-105.3c0-.2 0-.3-.1-.5z"/><path d="m462.3 129.9c-.1-.1-.3-.2-.5-.2h-12.1c-.3 0-.5.2-.5.4-2.4 8.8-6.2 13.3-11.3 13.3-1.5 0-2.6-.5-3.4-1.5-2.2-2.8-1.9-9.6.9-20h29.4c.3 0 .5-.2.5-.4l.4-1.6c4.3-16.2 4.3-27.4-.2-33.2-2.5-3.3-6.4-4.9-11.5-4.9-7.4 0-13.8 3.1-19 9.2-5.1 6-9.4 15.4-12.7 27.9-1.7 6.3-2.7 11.8-3.1 16.3-.4 4.6-.1 8.5.9 11.5 1 3.1 2.8 5.4 5.2 6.8 2.4 1.5 5.6 2.2 9.4 2.2 12.9 0 22.2-8.5 27.7-25.3.1-.1.1-.3-.1-.5zm-11.6-35.9c2.4 0 3.7 1.1 4.1 3.5.5 2.2 0 6.9-1.3 13.9h-15.3c2.4-6.9 4.4-11.5 6.1-13.7 1.8-2.5 3.9-3.7 6.4-3.7z"/><path d="m501.5 123.3c-.5-1.5-1.4-3.1-2.6-4.8s-2.8-3.5-4.8-5.4c-4.7-4.5-6.6-8.3-5.8-11.5.3-1 .7-2 1.4-2.9s1.4-1.7 2.3-2.4 1.9-1.2 2.9-1.6 2.1-.6 3.2-.6c3.3 0 6.3 1.1 8.7 3.4.1.1.3.2.5.1s.3-.2.4-.4l3.3-12.2c.1-.2 0-.5-.2-.6-3.3-2.1-7-3.2-11.1-3.2-5.8 0-11 1.9-15.6 5.5-4.5 3.7-7.6 8.5-9.2 14.3-1.2 4.3-1.2 8.1 0 11.2 1.2 3 4 6.7 8.4 11 1.2 1.3 2.3 2.4 3.1 3.4s1.3 1.8 1.6 2.6c.6 1.5.6 3.3.1 5.3-1.5 5.6-5 8.4-10.8 8.4-3.2 0-6.3-1.4-9.2-4.1-.1-.1-.3-.2-.5-.1s-.3.2-.4.4l-3.4 12.6c-.1.2 0 .5.2.6 3.3 2.3 7 3.4 10.9 3.4 6.2 0 11.8-1.9 16.5-5.8 4.8-3.9 8.1-9.1 9.8-15.5 1.2-4.4 1.3-8.2.3-11.1z"/><path d="m531.2 72.8c2.6 0 5-.9 7.3-2.7s3.8-4 4.5-6.6.3-4.8-1-6.7c-1.4-1.9-3.4-2.8-5.9-2.8s-5 .9-7.4 2.7c-2.3 1.8-3.8 4-4.4 6.4-.7 2.7-.4 5 .9 6.8 1.3 1.9 3.3 2.9 6 2.9z"/><path d="m535.4 84.2c-.1-.1-.3-.2-.4-.2h-13.1c-.3 0-.5.2-.5.4l-19 70.6c0 .2 0 .3.1.5.1.1.3.2.4.2h13.1c.3 0 .5-.2.5-.4l18.9-70.6c.1-.2.1-.3 0-.5z"/><path d="m586.5 83.1c-.1-.1-.3-.2-.4-.2h-13c-.3 0-.5.2-.5.4l-1.6 6.1c-1.9-5.1-5.4-7.7-10.5-7.7-6 0-11.3 3-15.6 8.9-4.3 5.8-8.1 14.9-11.4 27.2-3.4 12.8-4.6 22.4-3.5 28.5 1.2 6.3 4.9 9.5 11 9.5 3.1 0 5.9-.8 8.3-2.3 1.8-1.2 3.9-3.2 6.2-6l-1.7 6.4c0 .2 0 .3.1.5.1.1.3.2.4.2h13c.3 0 .5-.2.5-.4l18.9-70.6c-.1-.1-.1-.3-.2-.5zm-23.1 35.6c-2.3 8.4-4.6 14.7-7 18.7-2.2 3.6-4.7 5.5-7.4 5.5-2.9 0-4.4-1.6-4.6-5-.2-3.6.9-10.1 3.3-19.3 2.4-9.1 4.8-15.4 6.9-18.7 2.2-3.4 4.7-5.2 7.6-5.2 2.6 0 4 1.7 4.3 5.2.2 4-.8 10.3-3.1 18.8z"/></g><path d="m74.2 67.7-66.8 31.8 66.8 50.9z"/><path d="m120.6 8.7-39.4 18.8v128.2z"/></g></svg>